# xmcd
#
# Track frame offsets:
#	150
#	12875
#	25677
#	36175
#	47767
#	62897
#	79240
#	89860
#	101865
#	113435
#	126707
#	141062
#	153457
#	167320
#	178742
#	191477
#
# Disc length: 2727
#
# Revision: 3
# Processed by: cddbd v1.5.1PL0 Copyright (c) Steve Scherf et al.
# Submitted via: DiscPlay 4.0.4
# Normalized: r1:DSETVAR1,TDELIM( - ),TSWAP
#
DISCID=d80aa510
DTITLE=Various Artist - Swing out Sisters
DYEAR=1900
DGENRE=
TTITLE0=Dinah Washington - Mad about the boy
TTITLE1=Maybelle - It's a man's man's world
TTITLE2=Etta James with Sugar Pie De Santo - In the basement
TTITLE3=Irma Thomas - Good to me
TTITLE4=Little Esther - Release me
TTITLE5=Nina Simone - My baby just cares for me
TTITLE6=Betty Everett - You're no good
TTITLE7=Ella Fitzgerald - A tisket a tasket
TTITLE8=Sarah Vaughan - Gentleman friend
TTITLE9=Billie Holiday - God bless the child
TTITLE10=Ella Fitzgerald - My heart belongs to Daddy
TTITLE11=Sarah Vaughan - Sometimes I feel like a motherless child
TTITLE12=Etta James - I just want to make love to you
TTITLE13=Dinah Washington - Our love is here to stay
TTITLE14=Sarah Vaughan - What a difference a day made
TTITLE15=Billie Holiday - Summertime
EXTD=
EXTT0=
EXTT1=
EXTT2=
EXTT3=
EXTT4=
EXTT5=
EXTT6=
EXTT7=
EXTT8=
EXTT9=
EXTT10=
EXTT11=
EXTT12=
EXTT13=
EXTT14=
EXTT15=
PLAYORDER=
